<svg version="1.1" xmlns="http://www.w3.org/2000/svg" xmlns:xlink="http://www.w3.org/1999/xlink" x="0px" y="0px"
	 viewBox="0 0 300 280" enable-background="new 0 0 300 280" xml:space="preserve">
<g id="bacgbasetall">
</g>
<g id="size">
	<g>
		<g>
			
				<path fill-rule="evenodd" clip-rule="evenodd" fill="#FFFFFF" stroke="#040000" stroke-width="1.3628" stroke-linecap="round" stroke-linejoin="round" d="
				M139.5,18.7c37.5,5.2,47.6,27.6,43.7,45.7l-8.2-0.6c3.9-15.6-3.8-35.7-36.6-40.3c-39.9-5.6-51,18.5-47.8,34.6l-8.2-0.6
				C79.3,38.7,94.1,12.3,139.5,18.7L139.5,18.7z"/>
			
				<polygon fill-rule="evenodd" clip-rule="evenodd" fill="#FFFFFF" stroke="#040000" stroke-width="1.3628" stroke-linecap="round" stroke-linejoin="round" points="
				54.9,41.5 217.5,55.7 236.4,222.4 64.1,246.6 54.9,41.5 			"/>
			<g>
				
					<polygon fill-rule="evenodd" clip-rule="evenodd" fill="#FFFFFF" stroke="#040000" stroke-width="1.3628" stroke-linecap="round" stroke-linejoin="round" points="
					64.1,246.6 20.9,233.3 48.4,215.2 64.1,246.6 				"/>
				
					<polygon fill-rule="evenodd" clip-rule="evenodd" fill="#FFFFFF" stroke="#040000" stroke-width="1.3628" stroke-linecap="round" stroke-linejoin="round" points="
					48.4,215.2 54.9,41.5 64.1,246.6 48.4,215.2 				"/>
				
					<polygon fill-rule="evenodd" clip-rule="evenodd" fill="#FFFFFF" stroke="#040000" stroke-width="1.3628" stroke-linecap="round" stroke-linejoin="round" points="
					20.9,233.3 41.5,43 54.7,45.1 48.4,215.2 20.9,233.3 				"/>
			</g>
			
				<path fill-rule="evenodd" clip-rule="evenodd" fill="#FFFFFF" stroke="#040000" stroke-width="1.3628" stroke-linecap="round" stroke-linejoin="round" d="
				M97.7,54.4c3.1,0,5.6,1.7,5.6,3.7c0,2.1-2.5,3.7-5.6,3.7c-3.1,0-5.6-1.7-5.6-3.7C92.1,56.1,94.6,54.4,97.7,54.4L97.7,54.4z"/>
			
				<path fill-rule="evenodd" clip-rule="evenodd" fill="#FFFFFF" stroke="#040000" stroke-width="1.3628" stroke-linecap="round" stroke-linejoin="round" d="
				M190.9,60.7c3.1,0,5.6,1.7,5.6,3.7c0,2.1-2.5,3.7-5.6,3.7c-3.1,0-5.6-1.7-5.6-3.7C185.3,62.4,187.8,60.7,190.9,60.7L190.9,60.7z"
				/>
			
				<path fill-rule="evenodd" clip-rule="evenodd" fill="#FFFFFF" stroke="#040000" stroke-width="1.3628" stroke-linecap="round" stroke-linejoin="round" d="
				M151.4,17.6c37.5,5.4,47.6,28.4,43.7,47l-1.7,0.8H191l-2.2-0.5l-1.8-0.9c3.9-16-3.8-36.8-36.6-41.5c-39.9-5.7-51,19-47.8,35.6
				l-1.5,0.5l-2.5,0.1l-2.9-0.2l-1.4-1C91.2,38.1,106,11.1,151.4,17.6L151.4,17.6z"/>
		</g>
		<text transform="matrix(1 0 0 1 135.3893 258.6482)" font-family="'KozGoPr6N-Regular-83pv-RKSJ-H'" font-size="14">320mm</text>
		<text transform="matrix(1 0 0 1 23.2646 258.6483)" font-family="'KozGoPr6N-Regular-83pv-RKSJ-H'" font-size="10">110mm</text>
		<line fill="none" stroke="#686767" stroke-linejoin="round" x1="19.9" y1="236.9" x2="19.9" y2="242.9"/>
		<line fill="none" stroke="#686767" stroke-linejoin="round" x1="62.9" y1="250.9" x2="62.9" y2="256.9"/>
		<line fill="none" stroke="#686767" stroke-linejoin="round" x1="64.9" y1="250.9" x2="64.9" y2="256.9"/>
		<line fill="none" stroke="#686767" stroke-linejoin="round" x1="235.9" y1="227.9" x2="235.9" y2="233.9"/>
		<line fill="none" stroke="#686767" stroke-miterlimit="10" x1="65.8" y1="253.3" x2="236.2" y2="230.2"/>
		<line fill="none" stroke="#686767" stroke-width="1.0582" stroke-miterlimit="10" x1="20.1" y1="239" x2="63.6" y2="253.3"/>
		<polyline fill="none" stroke="#686767" stroke-miterlimit="10" points="221.4,55.4 243.9,55.4 243.9,221.9 		"/>
		<rect x="234.3" y="137.6" fill="#FFFFFF" width="27.6" height="15.7"/>
		<text transform="matrix(1 0 0 1 231.5758 150.7875)" font-family="'KozGoPr6N-Regular-83pv-RKSJ-H'" font-size="14">450mm</text>
	</g>
</g>
</svg>
