<svg version="1.1" id="base" xmlns="http://www.w3.org/2000/svg" xmlns:xlink="http://www.w3.org/1999/xlink" x="0px" y="0px"
	 viewBox="0 0 300 225" enable-background="new 0 0 300 225" xml:space="preserve">
<g>
	<text transform="matrix(1 0 0 1 129.9023 205.023)" font-family="'KozGoPr6N-Regular-83pv-RKSJ-H'" font-size="14">220mm</text>
	<text transform="matrix(1 0 0 1 50.4858 205.0231)" font-family="'KozGoPr6N-Regular-83pv-RKSJ-H'" font-size="10">65mm</text>
	<line fill="none" stroke="#686767" stroke-linejoin="round" x1="51.9" y1="184.4" x2="51.9" y2="190.4"/>
	<line fill="none" stroke="#686767" stroke-linejoin="round" x1="82.9" y1="190.4" x2="82.9" y2="196.4"/>
	<g>
		<line fill="none" stroke="#686767" stroke-linejoin="round" x1="205.9" y1="178.4" x2="205.9" y2="184.4"/>
		<line fill="none" stroke="#686767" stroke-miterlimit="10" x1="83" y1="193.2" x2="206.3" y2="181"/>
		<line fill="none" stroke="#686767" stroke-miterlimit="10" x1="51.6" y1="186.5" x2="82.8" y2="193"/>
		<line fill="none" stroke="#686767" stroke-width="0.9985" stroke-miterlimit="10" x1="195" y1="36.9" x2="224.4" y2="99.6"/>
		<line fill="none" stroke="#686767" stroke-width="0.9985" stroke-miterlimit="10" x1="224.4" y1="99.6" x2="214.7" y2="173.3"/>
		<rect x="209.7" y="91.4" fill="#FFFFFF" width="30.1" height="14.4"/>
		<text transform="matrix(1 0 0 1 201.089 104.2533)" font-family="'KozGoPr6N-Regular-83pv-RKSJ-H'" font-size="14">265mm</text>
	</g>
	<g>
		<g>
			
				<path fill-rule="evenodd" clip-rule="evenodd" fill="#FFFFFF" stroke="#040000" stroke-width="0.8299" stroke-linejoin="round" d="
				M135.5,16.3c26.6,2.7,33.8,14.4,31.1,23.8l-5.9-0.3c2.8-8.1-2.7-18.6-26-21c-28.4-2.9-36.3,9.6-34,18.1l-5.8-0.3
				C92.7,26.7,103.2,13,135.5,16.3L135.5,16.3z"/>
			
				<polygon fill-rule="evenodd" clip-rule="evenodd" fill="#FFFFFF" stroke="#040000" stroke-width="0.8299" stroke-linejoin="round" points="
				75.3,28.2 191,35.6 205.2,173.8 82.7,186.5 75.3,28.2 			"/>
			<g>
				
					<polygon fill-rule="evenodd" clip-rule="evenodd" fill="#FFFFFF" stroke="#040000" stroke-width="0.8299" stroke-linejoin="round" points="
					82.7,186.5 51.9,179.5 71.5,170 82.7,186.5 				"/>
				
					<polygon fill-rule="evenodd" clip-rule="evenodd" fill="#FFFFFF" stroke="#040000" stroke-width="0.8299" stroke-linejoin="round" points="
					71.5,170 75.3,28.2 82.7,186.5 71.5,170 				"/>
				
					<polygon fill-rule="evenodd" clip-rule="evenodd" fill="#FFFFFF" stroke="#040000" stroke-width="0.8299" stroke-linejoin="round" points="
					51.9,179.5 65.8,29 75.2,30.1 71.5,170 51.9,179.5 				"/>
			</g>
			
				<path fill-rule="evenodd" clip-rule="evenodd" fill="#FFFFFF" stroke="#040000" stroke-width="0.8299" stroke-linejoin="round" d="
				M105.8,34.9c2.2,0,4,0.9,4,1.9c0,1.1-1.8,1.9-4,1.9c-2.2,0-4-0.9-4-1.9C101.8,35.8,103.6,34.9,105.8,34.9L105.8,34.9z"/>
			
				<path fill-rule="evenodd" clip-rule="evenodd" fill="#FFFFFF" stroke="#040000" stroke-width="0.8299" stroke-linejoin="round" d="
				M172.1,38.2c2.2,0,4,0.9,4,1.9c0,1.1-1.8,1.9-4,1.9c-2.2,0-4-0.9-4-1.9C168,39.1,169.8,38.2,172.1,38.2L172.1,38.2z"/>
			
				<path fill-rule="evenodd" clip-rule="evenodd" fill="#FFFFFF" stroke="#040000" stroke-width="0.8299" stroke-linejoin="round" d="
				M144,15.7c26.6,2.8,33.8,14.8,31.1,24.5l-1.2,0.4h-1.8l-1.6-0.3l-1.3-0.5c2.8-8.4-2.7-19.2-26-21.6c-28.4-3-36.3,9.9-34,18.6
				l-1.1,0.3l-1.8,0l-2-0.1l-1-0.5C101.1,26.5,111.7,12.3,144,15.7L144,15.7z"/>
		</g>
	</g>
</g>
</svg>
