<svg version="1.1" id="bagbase" xmlns="http://www.w3.org/2000/svg" xmlns:xlink="http://www.w3.org/1999/xlink" x="0px" y="0px"
	 viewBox="0 0 300 300" enable-background="new 0 0 300 300" xml:space="preserve">
<g>
	<polyline fill="none" stroke="#686767" stroke-miterlimit="10" points="207.8,62.6 230.3,62.6 230.3,234.3 	"/>
	<text transform="matrix(1 0 0 1 138.2448 273.3851)" font-family="'KozGoPr6N-Regular-83pv-RKSJ-H'" font-size="14">280mm</text>
	<text transform="matrix(1 0 0 1 37.3699 272.3852)" font-family="'KozGoPr6N-Regular-83pv-RKSJ-H'" font-size="10">80mm</text>
	<line fill="none" stroke="#686767" stroke-linejoin="round" x1="70.9" y1="264.9" x2="70.9" y2="270.9"/>
	<line fill="none" stroke="#686767" stroke-linejoin="round" x1="219.9" y1="238.9" x2="219.9" y2="244.9"/>
	<line fill="none" stroke="#686767" stroke-width="0.9989" stroke-miterlimit="10" x1="70.6" y1="268.3" x2="219.5" y2="243.1"/>
	<line fill="none" stroke="#686767" stroke-width="1.0418" stroke-miterlimit="10" x1="35.2" y1="253.2" x2="71.6" y2="268.3"/>
	<rect x="219.1" y="150.4" fill="#FFFFFF" width="27.6" height="15.7"/>
	<text transform="matrix(1 0 0 1 216.4312 163.5243)" font-family="'KozGoPr6N-Regular-83pv-RKSJ-H'" font-size="14">400mm</text>
	<g>
		
			<path fill-rule="evenodd" clip-rule="evenodd" fill="#FFFFFF" stroke="#040000" stroke-width="1.2773" stroke-linejoin="round" d="
			M136.4,24c32,5.4,40.6,28.4,37.3,47l-7-0.6c3.3-16-3.3-36.8-31.2-41.5c-34-5.7-43.6,19.1-40.8,35.7l-7-0.6
			C85,44.6,97.6,17.5,136.4,24L136.4,24z"/>
		
			<polygon fill-rule="evenodd" clip-rule="evenodd" fill="#FFFFFF" stroke="#040000" stroke-width="1.2773" stroke-linejoin="round" points="
			64.2,47.5 203,62.1 219.1,233.7 72,258.6 64.2,47.5 		"/>
		<g>
			
				<polygon fill-rule="evenodd" clip-rule="evenodd" fill="#FFFFFF" stroke="#040000" stroke-width="1.2773" stroke-linejoin="round" points="
				72,258.6 35.1,244.9 58.7,226.2 72,258.6 			"/>
			
				<polygon fill-rule="evenodd" clip-rule="evenodd" fill="#FFFFFF" stroke="#040000" stroke-width="1.2773" stroke-linejoin="round" points="
				58.7,226.2 64.2,47.5 72,258.6 58.7,226.2 			"/>
			
				<polygon fill-rule="evenodd" clip-rule="evenodd" fill="#FFFFFF" stroke="#040000" stroke-width="1.2773" stroke-linejoin="round" points="
				35.1,244.9 52.8,49.1 64.1,51.2 58.7,226.2 35.1,244.9 			"/>
		</g>
		
			<path fill-rule="evenodd" clip-rule="evenodd" fill="#FFFFFF" stroke="#040000" stroke-width="1.2773" stroke-linejoin="round" d="
			M100.7,60.8c2.7,0,4.8,1.7,4.8,3.8c0,2.1-2.2,3.8-4.8,3.8c-2.7,0-4.8-1.7-4.8-3.8C95.9,62.5,98.1,60.8,100.7,60.8L100.7,60.8z"/>
		
			<path fill-rule="evenodd" clip-rule="evenodd" fill="#FFFFFF" stroke="#040000" stroke-width="1.2773" stroke-linejoin="round" d="
			M180.3,67.3c2.7,0,4.8,1.7,4.8,3.8c0,2.1-2.2,3.8-4.8,3.8c-2.7,0-4.8-1.7-4.8-3.8C175.4,69,177.6,67.3,180.3,67.3L180.3,67.3z"/>
		
			<path fill-rule="evenodd" clip-rule="evenodd" fill="#FFFFFF" stroke="#040000" stroke-width="1.2773" stroke-linejoin="round" d="
			M146.6,22.9c32,5.6,40.6,29.3,37.3,48.4l-1.5,0.8h-2.1l-1.9-0.5l-1.5-0.9c3.3-16.5-3.3-37.9-31.2-42.7
			c-34-5.9-43.6,19.6-40.8,36.7l-1.3,0.5l-2.1,0.1L99,65.1l-1.2-1C95.2,44,107.8,16.2,146.6,22.9L146.6,22.9z"/>
	</g>
</g>
</svg>