<svg version="1.1" id="base" xmlns="http://www.w3.org/2000/svg" xmlns:xlink="http://www.w3.org/1999/xlink" x="0px" y="0px"
	 viewBox="0 0 300 300" enable-background="new 0 0 300 300" xml:space="preserve">
<g>
	<polyline fill="none" stroke="#686767" stroke-miterlimit="10" points="189.8,73.6 212.3,73.6 212.3,217.9 	"/>
	<text transform="matrix(1 0 0 1 129.9023 256.0197)" font-family="'KozGoPr6N-Regular-83pv-RKSJ-H'" font-size="14">220mm</text>
	<text transform="matrix(1 0 0 1 50.4858 256.0198)" font-family="'KozGoPr6N-Regular-83pv-RKSJ-H'" font-size="10">65mm</text>
	<line fill="none" stroke="#686767" stroke-linejoin="round" x1="54.9" y1="229.9" x2="54.9" y2="235.9"/>
	<line fill="none" stroke="#686767" stroke-linejoin="round" x1="82.9" y1="240.9" x2="82.9" y2="246.9"/>
	<line fill="none" stroke="#686767" stroke-linejoin="round" x1="196.9" y1="219.9" x2="196.9" y2="225.9"/>
	<line fill="none" stroke="#686767" stroke-miterlimit="10" x1="82.8" y1="244" x2="196.9" y2="223.3"/>
	<line fill="none" stroke="#686767" stroke-miterlimit="10" x1="54.9" y1="233.6" x2="82.8" y2="244"/>
	<rect x="209.7" y="142.4" fill="#FFFFFF" width="30.1" height="14.4"/>
	<text transform="matrix(1 0 0 1 201.089 155.25)" font-family="'KozGoPr6N-Regular-83pv-RKSJ-H'" font-size="14">320mm</text>
	<g>
		
			<path fill-rule="evenodd" clip-rule="evenodd" fill="#FFFFFF" stroke="#040000" stroke-width="1.0299" stroke-linejoin="round" d="
			M133.1,41c24.7,4.5,31.3,23.9,28.8,39.6l-5.4-0.5c2.6-13.5-2.5-31-24.1-35c-26.3-4.8-33.6,16-31.5,30l-5.4-0.5
			C93.4,58.3,103.2,35.5,133.1,41L133.1,41z"/>
		
			<polygon fill-rule="evenodd" clip-rule="evenodd" fill="#FFFFFF" stroke="#040000" stroke-width="1.0299" stroke-linejoin="round" points="
			77.3,60.8 184.5,73.1 196.9,217.6 83.4,238.6 77.3,60.8 		"/>
		<g>
			
				<polygon fill-rule="evenodd" clip-rule="evenodd" fill="#FFFFFF" stroke="#040000" stroke-width="1.0299" stroke-linejoin="round" points="
				83.4,238.6 54.9,227 73.1,211.3 83.4,238.6 			"/>
			
				<polygon fill-rule="evenodd" clip-rule="evenodd" fill="#FFFFFF" stroke="#040000" stroke-width="1.0299" stroke-linejoin="round" points="
				73.1,211.3 77.3,60.8 83.4,238.6 73.1,211.3 			"/>
			
				<polygon fill-rule="evenodd" clip-rule="evenodd" fill="#FFFFFF" stroke="#040000" stroke-width="1.0299" stroke-linejoin="round" points="
				54.9,227 68.5,62.1 77.2,64 73.1,211.3 54.9,227 			"/>
		</g>
		
			<path fill-rule="evenodd" clip-rule="evenodd" fill="#FFFFFF" stroke="#040000" stroke-width="1.0299" stroke-linejoin="round" d="
			M105.6,72c2.1,0,3.7,1.4,3.7,3.2c0,1.8-1.7,3.2-3.7,3.2c-2.1,0-3.7-1.4-3.7-3.2C101.8,73.5,103.5,72,105.6,72L105.6,72z"/>
		
			<path fill-rule="evenodd" clip-rule="evenodd" fill="#FFFFFF" stroke="#040000" stroke-width="1.0299" stroke-linejoin="round" d="
			M167,77.5c2.1,0,3.7,1.4,3.7,3.2c0,1.8-1.7,3.2-3.7,3.2c-2.1,0-3.7-1.4-3.7-3.2C163.3,78.9,164.9,77.5,167,77.5L167,77.5z"/>
		
			<path fill-rule="evenodd" clip-rule="evenodd" fill="#FFFFFF" stroke="#040000" stroke-width="1.0299" stroke-linejoin="round" d="
			M141,40.1c24.7,4.7,31.3,24.6,28.8,40.8l-1.2,0.7H167l-1.5-0.4l-1.2-0.8c2.6-13.9-2.5-31.9-24.1-36c-26.3-5-33.6,16.5-31.5,30.9
			l-1,0.4l-1.6,0.1l-1.9-0.1l-0.9-0.9C101.3,57.9,111,34.4,141,40.1L141,40.1z"/>
	</g>
</g>
</svg>
