<svg version="1.1" xmlns="http://www.w3.org/2000/svg" xmlns:xlink="http://www.w3.org/1999/xlink" x="0px" y="0px"
	 viewBox="0 0 300 225" enable-background="new 0 0 300 225" xml:space="preserve">
<g id="bagbase">
	<g>
		
			<path fill-rule="evenodd" clip-rule="evenodd" fill="#FFFFFF" stroke="#040000" stroke-width="1.0278" stroke-linejoin="round" d="
			M142,9.1c37.8,3,48.1,15.6,44.2,25.7l-8.3-0.3c3.9-8.8-3.9-20.1-37-22.7c-40.3-3.1-51.6,10.4-48.3,19.5L84.3,31
			C81.1,20.3,96.1,5.5,142,9.1L142,9.1z"/>
		
			<polygon fill-rule="evenodd" clip-rule="evenodd" fill="#FFFFFF" stroke="#040000" stroke-width="1.0278" stroke-linejoin="round" points="
			56.4,21.9 220.8,29.9 241,179.2 66.9,192.8 56.4,21.9 		"/>
		<g>
			
				<polygon fill-rule="evenodd" clip-rule="evenodd" fill="#FFFFFF" stroke="#040000" stroke-width="1.0278" stroke-linejoin="round" points="
				66.9,192.8 23.3,185.3 51.1,175.1 66.9,192.8 			"/>
			
				<polygon fill-rule="evenodd" clip-rule="evenodd" fill="#FFFFFF" stroke="#040000" stroke-width="1.0278" stroke-linejoin="round" points="
				51.1,175.1 56.4,21.9 66.9,192.8 51.1,175.1 			"/>
			
				<polygon fill-rule="evenodd" clip-rule="evenodd" fill="#FFFFFF" stroke="#040000" stroke-width="1.0278" stroke-linejoin="round" points="
				23.3,185.3 43,22.8 56.3,24 51.1,175.1 23.3,185.3 			"/>
		</g>
		
			<path fill-rule="evenodd" clip-rule="evenodd" fill="#FFFFFF" stroke="#040000" stroke-width="1.0278" stroke-linejoin="round" d="
			M99.7,29.2c3.2,0,5.7,0.9,5.7,2.1c0,1.2-2.6,2.1-5.7,2.1c-3.1,0-5.7-0.9-5.7-2.1C94,30.2,96.6,29.2,99.7,29.2L99.7,29.2z"/>
		
			<path fill-rule="evenodd" clip-rule="evenodd" fill="#FFFFFF" stroke="#040000" stroke-width="1.0278" stroke-linejoin="round" d="
			M193.9,32.8c3.1,0,5.7,0.9,5.7,2.1c0,1.2-2.6,2.1-5.7,2.1c-3.2,0-5.7-0.9-5.7-2.1C188.2,33.7,190.8,32.8,193.9,32.8L193.9,32.8z"
			/>
		
			<path fill-rule="evenodd" clip-rule="evenodd" fill="#FFFFFF" stroke="#040000" stroke-width="1.0278" stroke-linejoin="round" d="
			M154,8.5c37.8,3,48,16,44.2,26.5l-1.8,0.5H194l-2.2-0.3l-1.8-0.5c3.9-9-3.9-20.7-37-23.4C112.7,8,101.4,22,104.6,31.3l-1.6,0.3
			l-2.5,0l-2.9-0.1L96.3,31C93.2,20,108.1,4.8,154,8.5L154,8.5z"/>
	</g>
</g>
<g id="size">
	<text transform="matrix(1 0 0 1 137.7957 213.4468)" font-family="'KozGoPr6N-Regular-83pv-RKSJ-H'" font-size="14">320mm</text>
	<text transform="matrix(1 0 0 1 24.6708 213.4469)" font-family="'KozGoPr6N-Regular-83pv-RKSJ-H'" font-size="10">110mm</text>
	<g>
		<line fill="none" stroke="#686767" stroke-linejoin="round" x1="21.9" y1="191.4" x2="21.9" y2="197.4"/>
		<line fill="none" stroke="#686767" stroke-linejoin="round" x1="65.9" y1="198.4" x2="65.9" y2="204.4"/>
		<line fill="none" stroke="#686767" stroke-linejoin="round" x1="70.9" y1="198.4" x2="70.9" y2="204.4"/>
		<line fill="none" stroke="#686767" stroke-linejoin="round" x1="240.9" y1="184.4" x2="240.9" y2="190.4"/>
		<line fill="none" stroke="#686767" stroke-miterlimit="10" x1="70.5" y1="200.6" x2="241" y2="186.8"/>
		<line fill="none" stroke="#686767" stroke-miterlimit="10" x1="21.7" y1="193.8" x2="65.4" y2="200.6"/>
		<line fill="none" stroke="#686767" stroke-miterlimit="10" x1="223.2" y1="29.9" x2="250.2" y2="98.4"/>
		<line fill="none" stroke="#686767" stroke-miterlimit="10" x1="250.2" y1="98.4" x2="246" y2="178.7"/>
	</g>
	<rect x="236.7" y="89.4" fill="#FFFFFF" width="27.6" height="15.7"/>
	<text transform="matrix(1 0 0 1 233.982 102.5861)" font-family="'KozGoPr6N-Regular-83pv-RKSJ-H'" font-size="14">265mm</text>
</g>
</svg>
