<svg version="1.1" xmlns="http://www.w3.org/2000/svg" xmlns:xlink="http://www.w3.org/1999/xlink" x="0px" y="0px"
	 viewBox="0 0 300 225" enable-background="new 0 0 300 225" xml:space="preserve">
<g id="bagbase">
</g>
<g id="size">
	<text transform="matrix(1 0 0 1 143.2484 212.4596)" font-family="'KozGoPr6N-Regular-83pv-RKSJ-H'" font-size="14">280mm</text>
	<text transform="matrix(1 0 0 1 42.3735 211.4597)" font-family="'KozGoPr6N-Regular-83pv-RKSJ-H'" font-size="10">80mm</text>
	<line fill="none" stroke="#686767" stroke-linejoin="round" x1="37.9" y1="189.4" x2="37.9" y2="195.4"/>
	<line fill="none" stroke="#686767" stroke-linejoin="round" x1="75.9" y1="197.4" x2="75.9" y2="203.4"/>
	<line fill="none" stroke="#686767" stroke-linejoin="round" x1="75.9" y1="197.4" x2="75.9" y2="203.4"/>
	<line fill="none" stroke="#686767" stroke-linejoin="round" x1="224.9" y1="182.4" x2="224.9" y2="188.4"/>
	<line fill="none" stroke="#686767" stroke-width="0.9989" stroke-miterlimit="10" x1="76.3" y1="199.7" x2="225.4" y2="184.8"/>
	<line fill="none" stroke="#686767" stroke-width="1.0418" stroke-miterlimit="10" x1="38.2" y1="192.2" x2="76.4" y2="199.4"/>
	<line fill="none" stroke="#686767" stroke-miterlimit="10" x1="210.6" y1="30" x2="237.6" y2="98.4"/>
	<line fill="none" stroke="#686767" stroke-miterlimit="10" x1="237.6" y1="98.4" x2="233.5" y2="178.7"/>
	<rect x="224.1" y="89.5" fill="#FFFFFF" width="27.6" height="15.7"/>
	<text transform="matrix(1 0 0 1 221.4348 102.5988)" font-family="'KozGoPr6N-Regular-83pv-RKSJ-H'" font-size="14">265mm</text>
	<g>
		
			<path fill-rule="evenodd" clip-rule="evenodd" fill="#FFFFFF" stroke="#040000" stroke-width="0.9675" stroke-linejoin="round" d="
			M140,4.6c32.4,3.1,41.2,16.1,37.9,26.6l-7.1-0.3c3.4-9.1-3.3-20.8-31.7-23.5c-34.5-3.2-44.2,10.8-41.4,20.2l-7.1-0.3
			C87.8,16.2,100.7,0.9,140,4.6L140,4.6z"/>
		
			<polygon fill-rule="evenodd" clip-rule="evenodd" fill="#FFFFFF" stroke="#040000" stroke-width="0.9675" stroke-linejoin="round" points="
			66.7,17.8 207.6,26.1 224.9,180.4 75.7,194.5 66.7,17.8 		"/>
		<g>
			
				<polygon fill-rule="evenodd" clip-rule="evenodd" fill="#FFFFFF" stroke="#040000" stroke-width="0.9675" stroke-linejoin="round" points="
				75.7,194.5 38.2,186.7 62.1,176.2 75.7,194.5 			"/>
			
				<polygon fill-rule="evenodd" clip-rule="evenodd" fill="#FFFFFF" stroke="#040000" stroke-width="0.9675" stroke-linejoin="round" points="
				62.1,176.2 66.7,17.8 75.7,194.5 62.1,176.2 			"/>
			
				<polygon fill-rule="evenodd" clip-rule="evenodd" fill="#FFFFFF" stroke="#040000" stroke-width="0.9675" stroke-linejoin="round" points="
				38.2,186.7 55.1,18.7 66.6,20 62.1,176.2 38.2,186.7 			"/>
		</g>
		
			<path fill-rule="evenodd" clip-rule="evenodd" fill="#FFFFFF" stroke="#040000" stroke-width="0.9675" stroke-linejoin="round" d="
			M103.8,25.4c2.7,0,4.9,1,4.9,2.2c0,1.2-2.2,2.2-4.9,2.2c-2.7,0-4.9-1-4.9-2.2C98.9,26.3,101.1,25.4,103.8,25.4L103.8,25.4z"/>
		
			<path fill-rule="evenodd" clip-rule="evenodd" fill="#FFFFFF" stroke="#040000" stroke-width="0.9675" stroke-linejoin="round" d="
			M184.5,29c2.7,0,4.9,1,4.9,2.2c0,1.2-2.2,2.2-4.9,2.2c-2.7,0-4.9-1-4.9-2.2C179.6,30,181.8,29,184.5,29L184.5,29z"/>
		
			<path fill-rule="evenodd" clip-rule="evenodd" fill="#FFFFFF" stroke="#040000" stroke-width="0.9675" stroke-linejoin="round" d="
			M150.3,3.9c32.4,3.1,41.2,16.5,37.9,27.4l-1.5,0.5h-2.1l-1.9-0.3l-1.6-0.5c3.4-9.3-3.3-21.4-31.7-24.1
			c-34.5-3.3-44.2,11.1-41.4,20.7l-1.3,0.3l-2.1,0.1l-2.5-0.1l-1.2-0.6C98.2,15.9,111,0.1,150.3,3.9L150.3,3.9z"/>
	</g>
</g>
</svg>