<svg version="1.1" xmlns="http://www.w3.org/2000/svg" xmlns:xlink="http://www.w3.org/1999/xlink" x="0px" y="0px"
	 viewBox="0 0 285 190" enable-background="new 0 0 285 190" xml:space="preserve">
<g id="bagbase">
	<g>
		<path fill-rule="evenodd" clip-rule="evenodd" fill="#FFFFFF" stroke="#040000" stroke-width="1.0278" d="M119.6,9.2
			c37.8,3,48.1,15.6,44.2,25.7l-8.3-0.3c3.9-8.8-3.9-20.1-37-22.7C78.3,8.8,67,22.3,70.2,31.4l-8.3-0.3
			C58.8,20.4,73.7,5.6,119.6,9.2L119.6,9.2z"/>
		<polygon fill-rule="evenodd" clip-rule="evenodd" fill="#FFFFFF" stroke="#040000" stroke-width="1.0278" points="34.1,22 
			198.4,30 218.7,179.3 44.6,192.9 34.1,22 		"/>
		<g>
			<polygon fill-rule="evenodd" clip-rule="evenodd" fill="#FFFFFF" stroke="#040000" stroke-width="1.0278" points="44.6,192.9 
				0.9,185.4 28.8,175.2 44.6,192.9 			"/>
			<polygon fill-rule="evenodd" clip-rule="evenodd" fill="#FFFFFF" stroke="#040000" stroke-width="1.0278" points="28.8,175.2 
				34.1,22 44.6,192.9 28.8,175.2 			"/>
			<polygon fill-rule="evenodd" clip-rule="evenodd" fill="#FFFFFF" stroke="#040000" stroke-width="1.0278" points="0.9,185.4 
				20.6,22.9 34,24.1 28.8,175.2 0.9,185.4 			"/>
		</g>
		<path fill-rule="evenodd" clip-rule="evenodd" fill="#FFFFFF" stroke="#040000" stroke-width="1.0278" d="M77.4,29.3
			c3.2,0,5.7,0.9,5.7,2.1c0,1.2-2.6,2.1-5.7,2.1c-3.1,0-5.7-0.9-5.7-2.1C71.7,30.2,74.2,29.3,77.4,29.3L77.4,29.3z"/>
		<path fill-rule="evenodd" clip-rule="evenodd" fill="#FFFFFF" stroke="#040000" stroke-width="1.0278" d="M171.5,32.9
			c3.1,0,5.7,0.9,5.7,2.1c0,1.2-2.6,2.1-5.7,2.1c-3.2,0-5.7-0.9-5.7-2.1C165.8,33.8,168.4,32.9,171.5,32.9L171.5,32.9z"/>
		<path fill-rule="evenodd" clip-rule="evenodd" fill="#FFFFFF" stroke="#040000" stroke-width="1.0278" d="M131.7,8.6
			c37.8,3,48,16,44.2,26.5l-1.8,0.5h-2.5l-2.2-0.3l-1.8-0.5c3.9-9-3.9-20.7-37-23.4C90.3,8.1,79,22.1,82.3,31.4l-1.6,0.3l-2.5,0
			l-2.9-0.1L74,31.1C70.8,20.1,85.8,4.9,131.7,8.6L131.7,8.6z"/>
	</g>
</g>
<g id="size">
	<line x1="48.2" y1="200.7" x2="218.7" y2="185.4"/>
	<rect x="229" y="85.5" opacity="0.8" fill="#FFFFFF" width="52" height="22"/>
	<text transform="matrix(1 0 0 1 115.4379 215.5439)"><tspan x="0" y="0" font-family="'KozGoPr6N-Regular-83pv-RKSJ-H'" font-size="20.0909">320</tspan><tspan x="33.2" y="-2.2" font-family="'KozGoPr6N-Regular-83pv-RKSJ-H'" font-size="14.1818">mm</tspan></text>
	<line x1="-0.7" y1="193.9" x2="43.1" y2="200.7"/>
	<text transform="matrix(1 0 0 1 2.3129 213.5302)" font-family="'KozGoPr6N-Regular-83pv-RKSJ-H'" font-size="10.6491">110mm</text>
	<line x1="200.8" y1="30" x2="227.8" y2="98.4"/>
	<line x1="227.8" y1="98.4" x2="223.7" y2="178.8"/>
	<text transform="matrix(1 0 0 1 231.703 101.0092)" font-family="'KozGoPr6N-Regular-83pv-RKSJ-H'" font-size="14.1818">265mm</text>
</g>
</svg>