<?xml version="1.0" encoding="utf-8"?>
<svg version="1.1" id="_x35_" xmlns="http://www.w3.org/2000/svg" xmlns:xlink="http://www.w3.org/1999/xlink" x="0px" y="0px"
	 viewBox="0 123.3 514.4 595.3" enable-background="new 0 123.3 514.4 595.3" xml:space="preserve">
<g>
	<path fill="none" d="M291,132.3c-26.2,10-49.7,39-63.1,75.9L355,211C341.8,172.9,317.8,142.6,291,132.3z"/>
	<path fill="none" d="M341.6,137.9c17.8,19.5,31.7,45.6,40.3,73.7l12.7,0.3C383.3,178.9,364,151.5,341.6,137.9z"/>
	<path fill="none" d="M189.1,207.2l12.3,0.3c8.6-26.5,22-51,39-69.6C219.2,150.9,200.6,176.3,189.1,207.2z"/>
	<g>
		<g>
			<g>
				<path fill="#6C6762" d="M391.4,286.4c0,6.8-5.8,12.2-12.9,12.2c-7,0-12.8-5.4-12.8-12.2c0-20.7-3.9-41.3-10.7-59.8
					c-13.2-36.4-37.2-65.4-64-75.2c-6.4-2.4-13-3.6-19.6-3.6c-10.6,0-21,3.2-30.9,8.9c0,0,0,0-0.1,0.1
					c-21.2,12.4-39.8,36.7-51.3,66.2c-7.6,19.5-12.1,41.3-12.1,63.4c0,6.8-5.7,12.2-12.8,12.2c-7,0-12.8-5.4-12.8-12.2
					c0-21.3,3.9-43.3,11.1-64c18.6-54.1,59.2-99.1,108.8-99.1c6.7,0,13.3,0.8,19.6,2.4c18.9,4.6,36,15.7,50.5,30.9
					c0,0.1,0.1,0.1,0.1,0.1c17.8,18.7,31.7,43.5,40.3,70.3C388.1,246.5,391.4,266.7,391.4,286.4z"/>
			</g>
			<g>
				<polygon fill="#59BB96" points="514.4,692.1 93,718.5 96.8,574.2 99.5,469.9 99.7,463.5 105.8,225.8 105.8,223.8 105.8,221.2 
					162.6,222.4 189.1,223 201.4,223.2 227.9,223.8 355,226.6 381.9,227.1 394.6,227.4 421.3,228 455.9,228.8 458.3,228.9 
					464.5,229 488.7,229.4 490.1,254.5 490.5,261.8 				"/>
			</g>
			<g>
				<polygon fill="#3BB588" points="109.9,223.4 98,573 93,718.5 93,718.6 56.2,705.3 35,697.7 0,685 1.6,665.1 1.6,664.2 
					2.4,653.9 36,224.9 74.8,227.4 105.8,223.8 				"/>
			</g>
			<g opacity="0.5">
				<polygon fill="#59BB96" points="5.3,683.5 91.3,714.9 60.5,672.1 				"/>
			</g>
			<g opacity="0.1">
				<polygon fill="#040000" points="107.6,224.8 106.4,225.7 75.9,231.3 60.5,672.1 91.3,714.9 				"/>
			</g>
			<g>
				<ellipse fill="#E5E8F5" cx="203.4" cy="292.5" rx="17.9" ry="17.1"/>
			</g>
			<g>
				<ellipse fill="#E5E8F5" cx="417.7" cy="292.5" rx="17.9" ry="17.1"/>
			</g>
			<g>
				<path fill="#757169" d="M430.6,286.4c0,6.8-5.8,12.2-12.8,12.2c-7.1,0-12.8-5.4-12.8-12.2c0-2,0-3.8-0.1-5.8V280
					c-0.7-18.2-4.4-36.2-10.3-52.6c-11.3-31.5-30.6-57.6-53-70.6c0,0-0.1,0-0.1-0.1c-9.9-5.7-20.4-8.9-30.9-8.9
					c-6.6,0-13.2,1.2-19.6,3.6c-26.2,9.5-49.7,37.3-63.1,72.4c-6.7,17.6-10.9,37-11.6,56.8v0.1c-0.1,2-0.1,3.7-0.1,5.7
					c0,6.8-5.8,12.2-12.9,12.2c-7,0-12.8-5.4-12.8-12.2c0-2,0-4,0.2-6.1c0.6-19.1,4.3-38.7,10.6-57.2c8.6-25.3,22-48.7,39-66.4
					c0.1-0.1,0.1-0.1,0.1-0.1c14.6-15.2,31.7-26.3,50.5-30.9c6.4-1.6,12.9-2.4,19.6-2.4c21.5,0,41.2,8.5,58.2,22.4
					c0.3,0.2,0.6,0.4,0.8,0.7c4.6,3.6,8.9,7.8,13,12.4c0.3,0.3,0.6,0.6,0.7,0.8c16.7,18.5,29.9,42.6,37.9,68.4
					c3,9.6,5.3,19.6,6.9,29.6c1.2,7.6,1.9,15.1,2.1,22.7C430.6,282.4,430.6,284.5,430.6,286.4z"/>
			</g>
		</g>
		<polygon opacity="5.000000e-02" fill="#040000" enable-background="new    " points="514.4,692.1 93,718.5 93,718.6 56.2,705.3 
			35,697.7 0,685 1.6,665.1 2.1,664.7 62.8,606.7 95.9,574.9 96.8,574.2 98,573 404.9,280 428.2,257.6 458.3,228.9 458.4,228.8 
			464.5,228.9 488.7,229.4 490.1,254.5 490.5,261.8 		"/>
	</g>
</g>
</svg>